# xmcd
#
# Track frame offsets:
#   183
#   7995
#   21195
#   33033
#   45420
#   59308
#   71895
#   84358
#   107308
#   120295
#   147033
#   164133
#   176858
#
# Disc length: 2512 seconds
#
# Revision: 1
# Processed by: cddbd v1.5PL3 Copyright (c) Steve Scherf et al.
# Submitted via: Media_Universe 3.0
#
DISCID=9d09ce0d
DTITLE=RAY CHARLES - LEYENDAS DEL BLUES
DYEAR=1900
DGENRE=Blues
TTITLE0=TERRAPLANE BLUES
TTITLE1=BILLIES BLUES
TTITLE2=I`D RATHER GO BLIND
TTITLE3=I AIN´T SUPERSTITIOUS
TTITLE4=BLUE BLOOD BLUES
TTITLE5=HONEST I DO
TTITLE6=I´M IN THE MOOD
TTITLE7=I´LL BE GONE
TTITLE8=I AM THE BLUES
TTITLE9=KNOCKIN´MYSELF OUT
TTITLE10=LONESOME BLES
TTITLE11=MEAN MISTREATER
TTITLE12=RAY CHARLES BLUES
EXTD=
EXTT0=
EXTT1=
EXTT2=
EXTT3=
EXTT4=
EXTT5=
EXTT6=
EXTT7=
EXTT8=
EXTT9=
EXTT10=
EXTT11=
EXTT12=
PLAYORDER=
